<?xml version="1.0" encoding="UTF-8"?>
<svg id="Layer_1" xmlns="http://www.w3.org/2000/svg" xmlns:xlink="http://www.w3.org/1999/xlink" version="1.1" viewBox="0 0 72 17">
  <!-- Generator: Adobe Illustrator 29.3.1, SVG Export Plug-In . SVG Version: 2.1.0 Build 151)  -->
  <defs>
    <style>
      .st0 {
        filter: url(#outer-glow-1);
      }

      .st1 {
        fill: #231f20;
      }
    </style>
    <filter id="outer-glow-1" x="-6" y="0" width="84" height="17" filterUnits="userSpaceOnUse">
      <feOffset dx="0" dy="0"/>
      <feGaussianBlur result="blur" stdDeviation="2"/>
      <feFlood flood-color="#10ad44" flood-opacity=".6"/>
      <feComposite in2="blur" operator="in"/>
      <feComposite in="SourceGraphic"/>
    </filter>
  </defs>
  <g class="st0">
    <path class="st1" d="M2.8,10l-.4.7H0s2.9-4.4,2.9-4.4h2.4s2.7,4.5,2.7,4.5h-2.3s-.4-.7-.4-.7h-2.6s0,0,0,0ZM4.1,7.9l-.6,1h1.2s-.6-1-.6-1Z"/>
    <path class="st1" d="M12.4,10.8h-4c0,0,0-3.2,0-3.2h1.7s0,2.1,0,2.1h2.4s0,1.1,0,1.1h0Z"/>
    <path class="st1" d="M14.6,10.7h-1.7s0-3.1,0-3.1h1.7s0,3.1,0,3.1Z"/>
    <path class="st1" d="M15.2,7.6h1.4s1.4,1.4,1.4,1.4v-1.4s1.7,0,1.7,0v3.1c0,0-1.5,0-1.5,0l-1.4-1.4v1.4s-1.7,0-1.7,0v-3.1c0,0,0,0,0,0Z"/>
    <path class="st1" d="M21.8,8.7h2.4s0,.9,0,.9h-2.4s0,.2,0,.2h2.4s0,.9,0,.9h-4c0,0,0-3.2,0-3.2h4c0,0,0,.9,0,.9h-2.4s0,.2,0,.2h0Z"/>
    <path class="st1" d="M28.2,9.3h-3.4c0,0,0-1.6,0-1.6h3.4c0,0,0,1.6,0,1.6Z"/>
    <path class="st1" d="M35.3,7.8c0,.9-.8,1.4-2.1,1.4h-2s0,1.5,0,1.5h-2.4s0-4.5,0-4.5h4.4c1.3,0,2.1.6,2,1.6ZM33.2,7.7c0-.1-.2-.2-.5-.2h-1.4s0,.4,0,.4h1.4c.3,0,.5,0,.5-.2h0Z"/>
    <path class="st1" d="M40.2,10.2v.5s-1.5,0-1.5,0v-.8c0-.2-.2-.4-.5-.4h-.7s0,1.1,0,1.1h-1.7s0-3.1,0-3.1h3c.9,0,1.4.4,1.4,1.1,0,.3-.2.6-.5.8.3.2.4.5.4.8h0ZM38.8,8.6c0,0-.1-.1-.4-.1h-1s0,.3,0,.3h1c.2,0,.4,0,.4-.1Z"/>
    <path class="st1" d="M42.4,10.7h-1.7s0-3.1,0-3.1h1.7s0,3.1,0,3.1Z"/>
    <path class="st1" d="M45.2,10.8c-1.1,0-1.9-.3-2.2-.9l1.4-.3c.1.2.5.3.9.3.5,0,.8,0,.8-.1,0-.4-3.2.2-3.2-1.1,0-.7.9-1.1,2.4-1.1,1.1,0,1.9.3,2.2.9l-1.4.3c-.1-.2-.5-.3-.9-.3-.5,0-.8,0-.8.2,0,.4,3.2-.2,3.2,1.1,0,.7-.9,1.1-2.4,1.1h0Z"/>
    <path class="st1" d="M51,9.4l1.6.2c-.3.8-1.1,1.2-2.3,1.2-1.5,0-2.3-.6-2.3-1.7s.9-1.6,2.4-1.6c1.2,0,2,.5,2.3,1.3l-1.6.2c0-.2-.3-.4-.6-.4-.4,0-.7.2-.7.5s.2.6.7.6c.3,0,.6-.1.6-.4h0Z"/>
    <path class="st1" d="M54.8,10.7h-1.7s0-3.1,0-3.1h1.7s0,3.1,0,3.1Z"/>
    <path class="st1" d="M59.4,10.8h-4c0,0,0-3.2,0-3.2h1.7s0,2.1,0,2.1h2.4s0,1.1,0,1.1h0Z"/>
    <path class="st1" d="M63.9,10.8h-4c0,0,0-3.2,0-3.2h1.7s0,2.1,0,2.1h2.4s0,1.1,0,1.1h0Z"/>
    <path class="st1" d="M66,10.7h-1.7s0-3.1,0-3.1h1.7s0,3.1,0,3.1Z"/>
    <path class="st1" d="M68.2,10.2l-.3.5h-1.6s2-3.1,2-3.1h1.7s1.9,3.2,1.9,3.2h-1.6s-.3-.5-.3-.5h-1.8s0,0,0,0ZM69.2,8.7l-.4.7h.8s-.4-.7-.4-.7Z"/>
  </g>
</svg>