<?xml version="1.0" encoding="UTF-8"?>
<svg id="Layer_1" data-name="Layer 1" xmlns="http://www.w3.org/2000/svg" xmlns:xlink="http://www.w3.org/1999/xlink" viewBox="0 0 360.33 22.91">
  <defs>
    <style>
      .cls-1 {
        filter: url(#outer-glow-1);
      }

      .cls-2 {
        fill: #231f20;
      }
    </style>
    <filter id="outer-glow-1" x="-12.11" y="-12.24" width="384.48" height="47.28" filterUnits="userSpaceOnUse">
      <feOffset dx="0" dy="0"/>
      <feGaussianBlur result="blur" stdDeviation="4"/>
      <feFlood flood-color="#35a348" flood-opacity=".52"/>
      <feComposite in2="blur" operator="in"/>
      <feComposite in="SourceGraphic"/>
    </filter>
  </defs>
  <g class="cls-1">
    <path class="cls-2" d="M13.73,18.97l-2.16,3.44-11.57-.2L14.61.17l12,.21,13.66,22.53-11.57-.2-2-3.51-12.98-.23ZM20.47,8.3l-3.13,4.94,6,.1-2.87-5.04Z"/>
    <path class="cls-2" d="M61.9,22.73l-20.25-.35.27-15.59,8.4.15-.18,10.29,11.85.21-.09,5.3Z"/>
    <path class="cls-2" d="M72.75,22.63l-8.4-.15.27-15.59,8.4.15-.27,15.59Z"/>
    <path class="cls-2" d="M75.71,6.74l7.2.12,6.78,7.14.12-6.99,8.4.15-.27,15.59-7.2-.16-6.78-7.14-.12,7.05-8.4-.15.28-15.63Z"/>
    <path class="cls-2" d="M109.19,12.7l11.85.21-.07,4.05-11.85-.2-.02,1.4,11.85.21-.08,4.37-20.25-.35.27-15.59,20.25.35-.08,4.37-11.85-.2-.02,1.4Z"/>
    <path class="cls-2" d="M141.06,15.35l-17.14-.3.13-7.58,17.14.3-.13,7.58Z"/>
    <path class="cls-2" d="M176.74,7.83c-.08,4.64-3.85,7.16-10.45,7.04l-9.81-.17-.14,7.8-12-.21.39-22.29,21.81.38c6.6.12,10.28,2.81,10.2,7.45ZM166.03,7.64c.01-.62-.93-1-2.55-1.07l-6.86-.12-.03,2.01,6.86.12c1.63.03,2.58-.31,2.59-.94Z"/>
    <path class="cls-2" d="M201.19,20.22l-.04,2.53-7.5-.13.07-3.84c.02-1.25-.99-1.95-2.82-1.98l-3.6-.06-.1,5.77-8.4-.15.27-15.59,15.27.26c4.62.08,7.2,1.93,7.14,5.12-.03,1.75-.89,3.04-2.47,3.83,1.45.9,2.21,2.35,2.18,4.25ZM193.98,12.11c0-.47-.65-.73-1.79-.75l-4.8-.08-.02,1.4,4.8.08c1.14.02,1.8-.22,1.81-.65Z"/>
    <path class="cls-2" d="M212.17,22.63l-8.4-.15.27-15.59,8.4.15-.27,15.59Z"/>
    <path class="cls-2" d="M226.25,22.8c-5.52-.06-9.54-1.69-11.17-4.5l6.78-1.38c.7.92,2.31,1.48,4.47,1.51,2.52.04,3.93-.21,3.94-.74.04-2.03-15.95.94-15.84-5.61.06-3.62,4.42-5.57,12.1-5.44,5.55.1,9.57,1.73,11.17,4.56l-6.78,1.38c-.67-.98-2.28-1.54-4.47-1.57-2.52-.04-3.94.24-3.95.81-.03,1.81,15.95-.94,15.83,5.61-.06,3.65-4.42,5.57-12.1,5.38Z"/>
    <path class="cls-2" d="M255.34,15.75l8.2,1.08c-1.36,3.97-5.51,6.14-11.51,6.04-7.5-.13-11.65-3.13-11.56-8.31.09-5.18,4.34-8.04,11.84-7.91,6.03.1,10.1,2.42,11.29,6.43l-8.24.79c-.34-1.19-1.47-1.9-3.12-1.93-2.13-.04-3.35.94-3.38,2.75-.03,1.81,1.15,2.83,3.28,2.86,1.68.03,2.83-.64,3.18-1.82Z"/>
    <path class="cls-2" d="M274.22,22.63l-8.4-.15.27-15.59,8.4.15-.27,15.59Z"/>
    <path class="cls-2" d="M297.16,22.73l-20.25-.35.27-15.59,8.4.15-.18,10.29,11.85.21-.09,5.3Z"/>
    <path class="cls-2" d="M319.86,22.73l-20.25-.35.27-15.59,8.4.15-.18,10.29,11.85.21-.09,5.3Z"/>
    <path class="cls-2" d="M330.7,22.63l-8.4-.15.27-15.59,8.4.15-.27,15.59Z"/>
    <path class="cls-2" d="M341.74,20.05l-1.51,2.41-8.1-.14,10.23-15.42,8.4.15,9.56,15.76-8.1-.14-1.4-2.46-9.09-.16ZM346.46,12.58l-2.19,3.46,4.2.07-2.01-3.53Z"/>
  </g>
</svg>